<svg xmlns="http://www.w3.org/2000/svg" width="512" height="512" viewBox="0 0 612.016 612.016"><g fill="#FFF"><path d="M476.062 35.829c-20.72 0-39.913 6.518-57.239 19.407-16.018-19.054-31.269-24.86-33.25-25.556l-2.237-.783h-154.67l-2.242.789c-1.982.695-17.232 6.501-33.245 25.555-17.331-12.889-36.52-19.406-57.239-19.406-68.81 0-129.11 73.013-131.648 76.121L0 117.217l15.344 67.663 10.58.514c.176.011 17.964 1.204 38.953 14.171 12.77 7.887 24.082 18.488 33.619 31.507 12.205 16.656 21.555 37.37 27.797 61.566l6.574 25.483 17.393-19.754c.146-.167 12.132-13.771 31.476-35.186 6.746 16.288 10.45 29.566 11.711 41.615 1.65 15.759-.669 30.646-7.747 49.783l-5.937 16.049 21.991 3.347c-6.507 14.722-19.625 36.063-43.12 44.257l-31.606 11.026 30.091 14.669c.778.379 19.323 9.309 43.078 11.058 2.761.202 5.474.306 8.152.306 18.343 0 34.688-4.769 48.485-14.046l2.216 38.31-49.398 24.035-.291 8.385c-.737 21.415 4.686 38.269 16.112 50.094 20.179 20.886 53.295 21.052 82.68 21.052h1.473c17.798 0 31.242-4.577 39.955-13.605 8.358-8.666 9.262-18.265 9.304-21.57l5.007-105.641c13.449 8.582 29.229 12.987 46.855 12.987 2.673 0 5.392-.099 8.146-.306 23.755-1.754 42.301-10.679 43.079-11.058l30.09-14.669-31.605-11.026c-15.115-5.272-27.786-16.579-37.656-33.609a112.337 112.337 0 0 1-5.863-11.664l15.308-2.33-5.937-16.049c-7.077-19.137-9.392-34.023-7.747-49.783 1.261-12.054 4.966-25.327 11.717-41.615 19.344 21.419 31.331 35.02 31.476 35.186l17.394 19.754 6.574-25.483c6.134-23.775 15.271-44.199 27.169-60.7 9.351-12.972 20.444-23.599 32.976-31.58 20.958-13.346 39.238-14.892 40.271-14.97l10.502-.374 15.375-67.803-4.291-5.267c-2.548-3.098-62.854-76.117-131.663-76.117zM203.021 427.233a87.83 87.83 0 0 1-5.147-.487c17.476-15.557 27.299-35.56 32.233-48.459l23.288 3.544 1.359 23.47c-12.396 15.97-29.784 23.354-51.733 21.932zm131.996 35.14h-21.804v27.886h20.48l-2.485 52.428c-.125 2.59.363 5.646-1.687 7.648-2.164 2.112-5.199 3.005-8.069 3.7-3.865.934-7.876 1.204-11.841 1.204h-.742c-5.739.005-11.675 0-17.538-.172l-9.766-168.95-.176-3.062h57.378l-.083 1.806-1.52 32.099h-36.38v27.885h35.057l-.824 17.528zm-78.716 49.523l24.237 42.61c-14.534-1.156-27.605-4.135-35.025-11.814-4.774-4.945-7.472-12.044-8.167-21.576l18.955-9.22zm83.796-156.726H279.78l-1.074-18.551h62.267l-.876 18.551zm81.118 71.58a88.655 88.655 0 0 1-4.375.431c-21.596 1.594-38.823-5.251-51.276-20.346l1.245-26.25 21.788-3.316c4.799 12.848 14.674 33.505 32.618 49.481zm152.698-267.643c-9.719 2.008-24.942 6.543-41.443 16.734-15.837 9.786-29.784 22.821-41.454 38.751-9.952 13.584-18.239 29.291-24.762 46.897a5435.813 5435.813 0 0 0-29.623-32.809l-13.891-15.261-8.978 18.582c-13.792 28.554-20.869 50.114-22.939 69.895-1.588 15.177-.322 29.904 4.109 46.202l-26.78 4.073 2.48-52.325c.363-7.69-5.572-14.223-13.268-14.586-7.68-.374-14.223 5.573-14.586 13.268l-.031.659-.452 9.548h-65.198l-.55-9.548-.047-.805c-.446-7.69-7.036-13.559-14.721-13.112-7.69.446-13.559 7.036-13.112 14.726l3.087 53.378-34.678-5.271c4.432-16.299 5.698-31.024 4.11-46.203-2.07-19.785-9.143-41.34-22.94-69.894l-8.977-18.582-13.891 15.26a5300.567 5300.567 0 0 0-29.624 32.81c-6.522-17.606-14.809-33.312-24.761-46.897-11.67-15.93-25.618-28.964-41.455-38.75-16.5-10.196-31.725-14.731-41.443-16.734l-7.83-34.527c5.614-6.19 16.334-17.29 30.313-28.399 18.644-14.809 46.851-32.467 75.364-32.467 18.405 0 34.724 7.14 49.875 21.83l12.199 11.82 9.215-14.27c11.006-17.045 22.385-24.077 26.765-26.313h144.008c4.379 2.236 15.759 9.268 26.764 26.313l9.216 14.27 12.199-11.82c15.156-14.69 31.471-21.83 49.876-21.83 46.389 0 91.724 45.543 105.672 60.886l-7.818 34.501z"/><path d="M370.736 178.503c-14.757 0-26.723 11.965-26.723 26.723v39.176a6895.949 6895.949 0 0 1 18.229-18.171c4.654 2.963 10.855 4.411 17.44 3.622 12.857-1.546 22.297-11.037 21.077-21.196-.607-5.07-3.757-9.351-8.359-12.173 12.438-12.168 18.529-17.979 18.529-17.979h-40.193v-.002zm-122.255 0h-40.193s6.097 5.812 18.53 17.979c-4.603 2.823-7.747 7.104-8.359 12.173-1.219 10.16 8.214 19.655 21.077 21.196 6.585.789 12.786-.659 17.44-3.622a7953.225 7953.225 0 0 1 18.229 18.171v-39.176c-.001-14.755-11.961-26.721-26.724-26.721zm-82.493-66.62c-.638 1.619-15.582 40.001-7.135 73.361l27.029-6.844c-6.211-24.538 5.92-55.962 6.04-56.279l-12.972-5.106-12.962-5.132zm252.953 10.238c.125.316 12.251 31.741 6.04 56.279l27.029 6.844c8.442-33.359-6.497-71.742-7.135-73.361l-25.934 10.238z"/></g></svg>